<?xml version="1.0" encoding="utf-8"?>
<!-- Generator: Adobe Illustrator 17.0.0, SVG Export Plug-In . SVG Version: 6.00 Build 0)  -->
<!DOCTYPE svg PUBLIC "-//W3C//DTD SVG 1.1 Tiny//EN" "http://www.w3.org/Graphics/SVG/1.1/DTD/svg11-tiny.dtd">
<svg version="1.1" baseProfile="tiny" id="Layer_1" xmlns="http://www.w3.org/2000/svg" xmlns:xlink="http://www.w3.org/1999/xlink"
	 x="0px" y="0px" width="187.31px" height="52px" viewBox="0 0 187.31 52" xml:space="preserve">
<polygon fill="#FCE600" points="20,45 20,52 0,52 0,0 27,0 27,45 "/>
<g>
	<g>
		<path fill="#E46425" d="M32.105,8.893c0-0.479,0.383-0.91,0.861-0.91h11.345c9.238,0,16.802,7.515,16.802,16.706
			c0,9.286-7.563,16.801-16.802,16.801H32.967c-0.479,0-0.861-0.431-0.861-0.91V8.893z M43.737,35.65
			c6.223,0,10.77-4.691,10.77-10.961c0-6.223-4.547-10.914-10.77-10.914H38.28V35.65H43.737z"/>
		<path fill="#E46425" d="M67.626,8.893c0-0.479,0.383-0.91,0.909-0.91h19.481c0.527,0,0.91,0.431,0.91,0.91v3.925
			c0,0.479-0.383,0.91-0.91,0.91H73.849v7.85h11.823c0.479,0,0.909,0.431,0.909,0.91v3.973c0,0.527-0.431,0.91-0.909,0.91H73.849
			v8.376h14.168c0.527,0,0.91,0.431,0.91,0.91v3.925c0,0.479-0.383,0.91-0.91,0.91H68.535c-0.526,0-0.909-0.431-0.909-0.91V8.893z"
			/>
		<path fill="#E46425" d="M94.61,40.246l14.887-32.214c0.144-0.287,0.383-0.526,0.813-0.526h0.479c0.479,0,0.67,0.239,0.813,0.526
			l14.743,32.214c0.287,0.623-0.096,1.245-0.814,1.245h-4.164c-0.718,0-1.053-0.287-1.388-0.958l-2.346-5.169h-14.312l-2.346,5.169
			c-0.191,0.479-0.622,0.958-1.388,0.958h-4.164C94.706,41.49,94.323,40.868,94.61,40.246z M115.289,30.05l-4.787-10.531h-0.144
			l-4.69,10.531H115.289z"/>
		<path fill="#E46425" d="M133.896,8.893c0-0.479,0.383-0.91,0.909-0.91h11.249c5.888,0,10.723,4.787,10.723,10.579
			c0,5.936-4.835,10.77-10.675,10.77h-5.983v11.249c0,0.479-0.431,0.91-0.909,0.91h-4.404c-0.526,0-0.909-0.431-0.909-0.91V8.893z
			 M145.672,23.492c2.681,0,4.931-2.154,4.931-4.978c0-2.633-2.25-4.643-4.931-4.643h-5.553v9.621H145.672z"/>
		<path fill="#E46425" d="M164.429,8.893c0-0.479,0.383-0.91,0.909-0.91h11.249c5.888,0,10.723,4.787,10.723,10.579
			c0,5.936-4.835,10.77-10.675,10.77h-5.983v11.249c0,0.479-0.431,0.91-0.909,0.91h-4.404c-0.526,0-0.909-0.431-0.909-0.91V8.893z
			 M176.204,23.492c2.681,0,4.931-2.154,4.931-4.978c0-2.633-2.25-4.643-4.931-4.643h-5.553v9.621H176.204z"/>
	</g>
	<g>
		<path fill="#E46425" d="M10.1,8.893c0-0.479,0.431-0.91,0.909-0.91h4.452c0.479,0,0.91,0.431,0.91,0.91v31.688
			c0,0.479-0.431,0.909-0.91,0.909h-4.452c-0.479,0-0.909-0.431-0.909-0.909V8.893z"/>
	</g>
</g>
<polygon fill="#FFD105" points="20,52 20,45 27,45 "/>
<g>
</g>
<g>
</g>
<g>
</g>
<g>
</g>
<g>
</g>
<g>
</g>
<g>
</g>
<g>
</g>
<g>
</g>
<g>
</g>
<g>
</g>
<g>
</g>
<g>
</g>
<g>
</g>
<g>
</g>
</svg>
